<svg width="20" height="20" viewBox="0 0 20 20" fill="none" xmlns="http://www.w3.org/2000/svg">
<path d="M10.8978 2.89899C10.531 2.15574 9.47114 2.15574 9.10433 2.89899L7.17389 6.81048L2.8573 7.43772C2.03708 7.55691 1.70956 8.56488 2.30308 9.14341L5.4266 12.1881L4.68924 16.4872C4.54913 17.3041 5.40655 17.9271 6.14018 17.5414L9.5661 15.7403C9.72634 15.3409 9.96616 14.9766 10.2726 14.6701L10.3632 14.5795C10.0953 14.4754 9.79335 14.4911 9.53572 14.6265L5.67484 16.6563L6.41221 12.3571C6.46784 12.0327 6.3603 11.7017 6.12461 11.472L3.00109 8.42733L7.31769 7.80009C7.6434 7.75276 7.92496 7.54819 8.07062 7.25305L10.0011 3.34155L11.9315 7.25305C12.0772 7.54819 12.3587 7.75276 12.6844 7.80009L17.001 8.42733L16.2822 9.12799C16.7639 8.97925 17.2771 8.96021 17.7668 9.07087C18.2651 8.48446 17.9317 7.55207 17.1448 7.43772L12.8282 6.81048L10.8978 2.89899ZM15.8092 10.5478L10.9798 15.3772C10.6982 15.6588 10.4984 16.0116 10.4018 16.3979L10.0274 17.8959C9.86451 18.5473 10.4546 19.1373 11.106 18.9745L12.6039 18.6C12.9902 18.5034 13.343 18.3036 13.6246 18.0221L18.454 13.1926C19.1843 12.4623 19.1843 11.2782 18.454 10.5478C17.7237 9.81747 16.5395 9.81747 15.8092 10.5478Z" fill="#5B5FC7"/>
</svg>
